<svg width="278" height="624" viewBox="0 0 278 624" fill="none" xmlns="http://www.w3.org/2000/svg">
<path d="M226.416 386.772C206.611 401.986 182.793 411.708 157.574 414.871C132.354 418.035 106.708 414.518 83.4473 404.707C60.1867 394.895 40.2104 379.168 25.7095 359.25C11.2085 339.332 2.74303 315.993 1.24151 291.792C-0.260012 267.591 5.26043 243.463 17.1974 222.056C29.1343 200.648 47.0266 182.786 68.9119 170.431C90.7971 158.075 115.83 151.702 141.265 152.011C166.7 152.32 191.554 159.298 213.102 172.182L139.5 284L226.416 386.772Z" fill="#D9D9D9"/>
<line x1="228.5" y1="387" x2="228.5" y2="555" stroke="white"/>
<line x1="228" y1="555.5" x2="1" y2="555.5" stroke="white"/>
<line x1="140.5" y1="7.1879e-10" x2="140.5" y2="624" stroke="white"/>
<line x1="228" y1="387.5" x2="1" y2="387.5" stroke="white"/>
<line x1="0.5" y1="387" x2="0.5" y2="152" stroke="white"/>
<line x1="1" y1="151.5" x2="228" y2="151.5" stroke="white"/>
<line x1="220.5" y1="555" x2="220.5" y2="387" stroke="white"/>
</svg>
